<?xml version="1.0" encoding="UTF-8"?> <svg xmlns="http://www.w3.org/2000/svg" width="404" height="42" viewBox="0 0 404 42"><g id="logo-southworth" transform="translate(-19.664 27)"><rect id="Rectangle_483" data-name="Rectangle 483" width="404" height="42" transform="translate(19.664 -27)" fill="none"></rect><g id="Group_232" data-name="Group 232" transform="translate(20.577 -26.087)"><path id="Path_4153" data-name="Path 4153" d="M13.865,35.905l.7.56c2.442,1.934,5.382,3.511,8.522,3.511,1.346,0,3.489-.559,3.489-2.29s-1.794-1.883-3.04-2.137l-2.742-.508c-5.332-.968-9.818-4.173-9.818-10.177,0-9.109,8.123-14.2,16.3-14.2a22.025,22.025,0,0,1,11.912,3.358L35.5,23.846a14.014,14.014,0,0,0-7.924-2.9c-1.2,0-2.941.458-2.941,2.035,0,1.425,1.695,1.629,2.741,1.884l3.091.712c5.78,1.322,9.967,4.478,9.967,10.99,0,9.159-8.173,13.688-16.3,13.688A33.277,33.277,0,0,1,9.679,46.743Z" transform="translate(-9.679 -10.667)" fill="#125840"></path><path id="Path_4154" data-name="Path 4154" d="M88.087,30.562c0,12.314-9.32,19.693-20.783,19.693S46.523,42.876,46.523,30.562c0-12.059,9.37-19.9,20.782-19.9s20.783,7.836,20.783,19.9m-27.809.2c0,4.376,2.891,7.377,7.027,7.377s7.028-3,7.028-7.377c0-4.07-2.692-7.48-7.028-7.48s-7.027,3.409-7.027,7.48" transform="translate(-12.883 -10.667)" fill="#125840"></path><path id="Path_4155" data-name="Path 4155" d="M131.908,11.336V34.029c0,11.195-6.877,16.283-17.393,16.283S97.121,45.224,97.121,34.029V11.336h13.655V32.707c0,3,.1,5.648,3.738,5.648s3.738-2.647,3.738-5.648V11.336Z" transform="translate(-17.283 -10.725)" fill="#125840"></path><path id="Path_4156" data-name="Path 4156" d="M138.986,11.336h28.707V23.8l-7.526-.356V49.7H146.512V23.446l-7.525.356Z" transform="translate(-20.923 -10.725)" fill="#125840"></path><path id="Path_4157" data-name="Path 4157" d="M174.356,11.336h13.157V24.26h8.373V11.336h13.158V49.7H195.885V36.37h-8.373V49.7H174.356Z" transform="translate(-23.999 -10.725)" fill="#125840"></path><path id="Path_4158" data-name="Path 4158" d="M229.719,11.336l4.734,22.9h.3A48.631,48.631,0,0,1,235.9,27.16l3.988-15.824h10.465l5.133,22.9h.3a51.619,51.619,0,0,1,.948-6.767l3.787-16.13h14.2L261.466,49.7H249.555L245.268,28.84h-.448a36.816,36.816,0,0,1-.7,5.8L240.335,49.7H228.723L215.565,11.336Z" transform="translate(-27.582 -10.725)" fill="#125840"></path><path id="Path_4159" data-name="Path 4159" d="M321.54,30.562c0,12.314-9.321,19.693-20.784,19.693s-20.782-7.378-20.782-19.693c0-12.059,9.37-19.9,20.782-19.9s20.784,7.836,20.784,19.9m-27.81.2c0,4.376,2.892,7.377,7.027,7.377s7.028-3,7.028-7.377c0-4.07-2.692-7.48-7.028-7.48s-7.027,3.409-7.027,7.48" transform="translate(-33.183 -10.667)" fill="#125840"></path><path id="Path_4160" data-name="Path 4160" d="M330.791,11.337h16.5c8.473,0,15.649,3.662,15.649,13.33,0,5.8-2.192,8.244-7.275,9.973v.3a9.681,9.681,0,0,1,2.293,2.29L366.126,49.7H350.377L344.4,37.389h-.247V49.7H330.791Zm13.358,16.994h.945c2.242,0,4.487-.356,4.487-3.207,0-2.951-2.043-3.307-4.387-3.307h-1.045Z" transform="translate(-37.602 -10.725)" fill="#125840"></path><path id="Path_4161" data-name="Path 4161" d="M368.194,11.336H396.9V23.8l-7.525-.356V49.7H375.72V23.446l-7.525.356Z" transform="translate(-40.854 -10.725)" fill="#125840"></path><path id="Path_4162" data-name="Path 4162" d="M403.563,11.336h13.156V24.26h8.374V11.336h13.157V49.7H425.094V36.37h-8.374V49.7H403.563Z" transform="translate(-43.93 -10.725)" fill="#125840"></path><path id="Path_4163" data-name="Path 4163" d="M.356-3.917A3.315,3.315,0,0,0,3.763-.5,3.315,3.315,0,0,0,7.171-3.917,3.315,3.315,0,0,0,3.763-7.335,3.315,3.315,0,0,0,.356-3.917Zm6.263,0A2.825,2.825,0,0,1,3.763-.992,2.825,2.825,0,0,1,.907-3.917,2.825,2.825,0,0,1,3.763-6.842,2.825,2.825,0,0,1,6.619-3.917ZM5.428-2.145,4.207-3.681a1.032,1.032,0,0,0,.817-1.044c0-.355-.148-1.1-1.32-1.1H2.729v3.683h.7V-3.6L4.571-2.145Zm-2-3.063h.158c.256,0,.748.03.748.5,0,.315-.256.522-.768.522H3.429Z" transform="translate(395.235 7.907)" fill="#125840"></path></g></g></svg> 