<?xml version="1.0" standalone="no"?>
<!DOCTYPE svg PUBLIC "-//W3C//DTD SVG 20010904//EN"
 "http://www.w3.org/TR/2001/REC-SVG-20010904/DTD/svg10.dtd">
<svg version="1.0" xmlns="http://www.w3.org/2000/svg"
 width="1536.000000pt" height="1024.000000pt" viewBox="0 0 1536.000000 1024.000000"
 preserveAspectRatio="xMidYMid meet">

<g transform="translate(0.000000,1024.000000) scale(0.100000,-0.100000)"
fill="#000000" stroke="none">
<path d="M14700 7479 c-32 -13 -78 -56 -96 -91 -18 -36 -18 -112 1 -152 49
-103 212 -123 291 -34 72 80 49 216 -45 265 -47 24 -108 29 -151 12z m137 -49
c99 -60 75 -208 -39 -242 -85 -25 -168 35 -168 124 0 51 30 105 70 125 37 19
101 16 137 -7z"/>
<path d="M14699 7393 c-1 -5 -1 -44 -1 -87 -1 -66 2 -80 16 -82 12 -2 16 6 16
32 0 45 24 45 51 -1 20 -33 42 -45 53 -27 3 5 -3 22 -13 38 -16 26 -17 33 -5
49 17 23 18 57 2 73 -13 13 -117 17 -119 5z m89 -50 c3 -20 -1 -23 -27 -23
-27 0 -31 4 -31 26 0 22 4 25 28 22 19 -2 28 -9 30 -25z"/>
<path d="M768 7411 c-150 -48 -245 -153 -268 -297 -14 -84 -13 -1294 1 -1369
24 -129 91 -215 216 -277 l86 -43 1059 -3 1058 -3 0 626 0 625 -645 0 -645 0
0 -215 0 -214 359 -3 c345 -3 361 -4 387 -24 55 -41 69 -70 72 -152 4 -97 -15
-137 -78 -169 l-44 -23 -613 0 c-677 0 -664 -1 -703 62 -19 32 -20 49 -20 508
0 521 -2 503 60 535 25 13 152 15 950 15 l920 0 0 220 0 220 -1047 -1 c-988 0
-1051 -1 -1105 -18z"/>
<path d="M3404 7411 c-129 -37 -224 -130 -264 -257 -19 -64 -20 -91 -20 -710
0 -438 4 -660 11 -696 28 -130 98 -217 227 -280 l85 -43 953 -3 c849 -2 960
-1 1016 13 140 36 248 133 293 260 16 46 17 106 16 735 -1 377 -5 696 -8 710
-13 54 -63 138 -108 179 -54 49 -129 87 -205 101 -33 6 -400 10 -994 9 -863 0
-946 -2 -1002 -18z m1788 -459 l33 -32 0 -484 0 -484 -25 -27 c-53 -57 -19
-55 -792 -55 -698 0 -714 1 -746 20 -63 38 -63 40 -60 561 l3 471 38 34 37 34
740 -2 740 -3 32 -33z"/>
<path d="M5862 7213 l3 -218 860 -2 c950 -3 896 1 943 -66 16 -25 22 -48 22
-89 0 -61 -22 -104 -73 -142 -28 -21 -34 -21 -883 -24 l-854 -2 0 -625 0 -625
265 0 265 0 0 410 0 410 118 0 117 -1 227 -242 c125 -133 300 -318 390 -410
l163 -168 385 3 385 3 -240 245 c-132 135 -312 318 -399 408 l-160 162 191 0
c208 0 270 8 349 44 67 31 149 107 179 167 39 77 47 157 43 421 -4 223 -6 248
-27 301 -45 115 -138 199 -262 238 -58 18 -107 19 -1035 19 l-974 0 2 -217z"/>
<path d="M8320 6425 l0 -1005 958 2 958 3 76 38 c85 42 156 111 192 187 20 42
21 61 21 290 l0 245 -33 67 c-36 73 -102 139 -158 160 -19 7 -34 14 -34 18 0
3 20 16 45 29 56 30 120 98 148 159 21 44 22 62 22 282 l0 235 -32 66 c-55
111 -169 194 -302 219 -34 6 -385 10 -957 10 l-904 0 0 -1005z m1695 545 c44
-28 69 -86 63 -150 -5 -54 -26 -90 -72 -124 -27 -21 -39 -21 -607 -24 l-579
-2 0 160 0 160 581 0 c563 0 583 -1 614 -20z m-55 -752 c65 -33 93 -91 87
-179 -5 -79 -26 -119 -77 -148 -37 -21 -48 -21 -594 -21 l-556 0 0 185 0 185
548 0 548 0 44 -22z"/>
<path d="M10680 6425 l0 -1005 1000 0 1000 0 0 225 0 225 -770 0 -770 0 0 185
0 185 770 0 770 0 0 215 0 215 -770 0 -770 0 0 160 0 160 770 0 770 0 0 220 0
220 -1000 0 -1000 0 0 -1005z"/>
<path d="M12860 6425 l0 -1005 965 0 965 0 0 225 0 225 -682 0 c-764 0 -734
-3 -770 70 -17 32 -18 90 -18 763 l0 727 -230 0 -230 0 0 -1005z"/>
<path d="M2847 4930 c-56 -14 -87 -33 -134 -82 -65 -66 -86 -124 -91 -246 -4
-88 -1 -111 18 -162 29 -77 78 -132 148 -167 51 -25 68 -28 152 -28 111 1 153
17 214 85 39 44 80 125 70 141 -3 5 -29 9 -58 9 -53 0 -53 0 -77 -46 -34 -66
-74 -86 -166 -82 -84 4 -115 22 -153 89 -22 39 -25 55 -25 150 0 100 2 108 30
154 37 60 83 85 153 85 85 0 146 -36 171 -103 10 -26 14 -27 66 -26 49 2 55 4
55 23 -1 62 -80 161 -154 191 -48 20 -166 28 -219 15z"/>
<path d="M6093 4926 c-92 -29 -143 -98 -143 -193 0 -96 58 -146 215 -184 104
-25 124 -34 147 -63 40 -49 7 -117 -65 -137 -81 -22 -177 19 -201 85 -5 15
-13 17 -37 12 -18 -3 -42 -6 -55 -6 -30 0 -32 -26 -5 -78 39 -75 100 -110 211
-119 174 -15 290 67 290 203 0 102 -66 166 -206 199 -143 33 -174 52 -174 108
0 41 42 70 110 75 69 5 100 -10 130 -61 18 -30 22 -32 70 -29 46 4 50 6 50 29
0 37 -39 99 -79 127 -64 44 -175 58 -258 32z"/>
<path d="M7183 4930 c-62 -14 -120 -57 -143 -105 -28 -57 -24 -141 7 -183 28
-39 101 -76 191 -96 90 -21 127 -39 142 -65 41 -78 -45 -153 -157 -136 -47 7
-100 45 -114 81 -8 22 -13 23 -56 18 -26 -4 -52 -10 -57 -15 -22 -20 28 -109
82 -146 71 -48 239 -55 319 -15 99 51 139 160 94 259 -26 56 -76 87 -187 116
-113 31 -152 50 -160 82 -16 65 28 105 113 105 59 0 92 -16 118 -57 18 -29 25
-32 73 -33 44 0 52 3 52 18 0 33 -49 117 -82 139 -56 38 -157 52 -235 33z"/>
<path d="M11843 4921 c-145 -50 -220 -179 -211 -365 7 -144 63 -239 171 -287
74 -34 210 -33 279 0 105 51 164 147 175 283 22 263 -186 448 -414 369z m187
-109 c96 -48 137 -223 84 -352 -32 -75 -91 -113 -175 -113 -125 2 -189 83
-189 242 0 149 74 240 195 241 28 0 65 -8 85 -18z"/>
<path d="M757 4863 c-15 -38 -51 -135 -81 -218 -30 -82 -75 -204 -100 -270
-25 -65 -46 -120 -46 -122 0 -2 28 -3 63 -3 l63 0 29 85 29 85 131 0 131 0 28
-85 27 -85 66 0 c58 0 65 2 60 18 -3 9 -48 132 -102 272 -53 140 -107 285
-121 323 l-26 67 -62 0 -63 0 -26 -67z m137 -195 c20 -65 39 -124 42 -133 5
-13 -8 -15 -91 -15 -73 0 -96 3 -93 13 3 6 25 69 49 139 24 70 47 124 50 120
4 -4 23 -60 43 -124z"/>
<path d="M3870 4590 l0 -340 225 0 225 0 0 50 0 50 -165 0 -165 0 0 290 0 290
-60 0 -60 0 0 -340z"/>
<path d="M5094 4913 c-3 -10 -14 -38 -24 -63 -10 -25 -43 -112 -74 -195 -30
-82 -75 -204 -100 -270 -25 -65 -46 -123 -46 -127 0 -4 29 -8 65 -8 45 0 65 4
65 13 0 6 12 45 26 85 l27 73 131 -3 130 -3 26 -82 25 -83 68 0 c38 0 67 3 65
8 -1 4 -59 157 -127 340 l-124 332 -64 0 c-52 0 -65 -3 -69 -17z m114 -238
c22 -66 43 -128 47 -137 7 -16 -1 -18 -89 -18 -53 0 -96 4 -96 8 0 4 20 66 45
137 25 72 45 132 45 134 0 15 13 -19 48 -124z"/>
<path d="M9470 4919 c0 -10 -202 -554 -235 -631 l-15 -38 64 0 63 0 27 73 c14
39 26 78 26 85 0 9 33 12 133 12 l132 0 26 -82 26 -83 68 -3 c62 -3 67 -1 60
15 -4 10 -23 61 -42 113 -19 52 -70 192 -114 310 -44 118 -82 221 -84 228 -6
15 -135 17 -135 1z m114 -252 c21 -67 41 -128 43 -134 4 -10 -19 -13 -91 -13
l-95 0 47 135 c26 74 49 135 52 135 3 0 22 -55 44 -123z"/>
<path d="M10410 4590 l0 -342 178 4 c167 3 181 5 227 28 81 41 117 139 81 223
-15 37 -69 87 -94 87 -11 0 -6 7 15 21 100 64 85 237 -26 291 -41 21 -64 23
-213 26 l-168 4 0 -342z m336 206 c31 -35 31 -77 0 -113 -23 -26 -29 -28 -120
-31 l-96 -4 0 92 0 92 96 -4 c91 -4 98 -6 120 -32z m-8 -266 c46 -28 58 -60
43 -110 -17 -56 -48 -70 -161 -70 l-90 0 0 100 0 100 88 0 c69 0 94 -4 120
-20z"/>
<path d="M12955 4913 c9 -24 225 -656 225 -660 0 -2 31 -3 69 -3 56 0 70 3 76
18 4 9 53 154 110 322 57 168 107 313 111 323 6 16 1 18 -57 15 l-63 -3 -86
-262 c-47 -144 -87 -263 -90 -263 -3 0 -18 42 -33 93 -16 50 -53 170 -84 265
l-54 172 -66 0 c-58 0 -64 -2 -58 -17z"/>
<path d="M14230 4590 l0 -340 220 0 220 0 -1 50 -2 50 -159 0 c-144 0 -158 2
-159 18 0 9 -1 54 -2 100 l-2 82 143 0 142 0 0 50 0 50 -145 0 -145 0 0 90 0
90 160 0 160 0 0 50 0 50 -215 0 -215 0 0 -340z"/>
</g>
</svg>
